<svg width="100" height="100" viewBox="0 0 100 100" fill="none" xmlns="http://www.w3.org/2000/svg">
<path d="M18.75 68.7501C12.5 74.0001 10.4167 89.5835 10.4167 89.5835C10.4167 89.5835 26 87.5001 31.25 81.2501C34.2084 77.7501 34.1667 72.3751 30.875 69.1251C29.2555 67.5793 27.1221 66.6861 24.8843 66.6169C22.6465 66.5477 20.462 67.3074 18.75 68.7501Z" stroke="url(#paint0_linear_59_549)" stroke-width="8" stroke-linecap="round" stroke-linejoin="round"/>
<path d="M50 62.5L37.5 50C39.7173 44.2476 42.5092 38.7336 45.8333 33.5416C50.6883 25.7791 57.4484 19.3877 65.4708 14.9754C73.4932 10.563 82.5111 8.27652 91.6667 8.33331C91.6667 19.6666 88.4167 39.5833 66.6667 54.1666C61.4037 57.4947 55.8202 60.2864 50 62.5Z" stroke="url(#paint1_linear_59_549)" stroke-width="8" stroke-linecap="round" stroke-linejoin="round"/>
<path d="M37.5 49.9999H16.6667C16.6667 49.9999 18.9584 37.3749 25 33.3333C31.75 28.8333 45.8334 33.3333 45.8334 33.3333" stroke="url(#paint2_linear_59_549)" stroke-width="8" stroke-linecap="round" stroke-linejoin="round"/>
<path d="M50 62.5001V83.3334C50 83.3334 62.625 81.0417 66.6667 75.0001C71.1667 68.2501 66.6667 54.1667 66.6667 54.1667" stroke="url(#paint3_linear_59_549)" stroke-width="8" stroke-linecap="round" stroke-linejoin="round"/>
<defs>
<linearGradient id="paint0_linear_59_549" x1="21.9128" y1="66.6125" x2="21.9128" y2="89.5835" gradientUnits="userSpaceOnUse">
<stop stop-color="white"/>
<stop offset="1" stop-color="#00C0C8"/>
</linearGradient>
<linearGradient id="paint1_linear_59_549" x1="64.5833" y1="8.33228" x2="64.5833" y2="62.5" gradientUnits="userSpaceOnUse">
<stop stop-color="white"/>
<stop offset="1" stop-color="#00C0C8"/>
</linearGradient>
<linearGradient id="paint2_linear_59_549" x1="31.25" y1="31.3333" x2="31.25" y2="49.9999" gradientUnits="userSpaceOnUse">
<stop stop-color="white"/>
<stop offset="1" stop-color="#00C0C8"/>
</linearGradient>
<linearGradient id="paint3_linear_59_549" x1="59.3333" y1="54.1667" x2="59.3333" y2="83.3334" gradientUnits="userSpaceOnUse">
<stop stop-color="white"/>
<stop offset="1" stop-color="#00C0C8"/>
</linearGradient>
</defs>
</svg>
