<svg width="64" height="64" viewBox="0 0 64 64" fill="none" xmlns="http://www.w3.org/2000/svg">
<rect x="0.5" y="0.5" width="63" height="63" rx="7.5" fill="url(#paint0_linear_59_674)"/>
<rect x="0.5" y="0.5" width="63" height="63" rx="7.5" stroke="url(#paint1_linear_59_674)"/>
<g clip-path="url(#clip0_59_674)">
<path d="M35.84 32.5C35.84 33.2595 35.6148 34.0019 35.1928 34.6334C34.7709 35.2649 34.1712 35.7571 33.4695 36.0477C32.7678 36.3383 31.9957 36.4144 31.2509 36.2662C30.506 36.118 29.8217 35.7523 29.2847 35.2153C28.7477 34.6783 28.382 33.994 28.2338 33.2491C28.0856 32.5043 28.1617 31.7322 28.4523 31.0305C28.7429 30.3288 29.2351 29.7291 29.8666 29.3072C30.4981 28.8852 31.2405 28.66 32 28.66C33.0181 28.6612 33.9941 29.0661 34.714 29.786C35.4339 30.5059 35.8388 31.4819 35.84 32.5ZM44 27.22V37.78C43.998 39.5616 43.2893 41.2697 42.0295 42.5295C40.7697 43.7893 39.0616 44.498 37.28 44.5H26.72C24.9384 44.498 23.2303 43.7893 21.9705 42.5295C20.7107 41.2697 20.002 39.5616 20 37.78V27.22C20.002 25.4384 20.7107 23.7303 21.9705 22.4705C23.2303 21.2107 24.9384 20.502 26.72 20.5H37.28C39.0616 20.502 40.7697 21.2107 42.0295 22.4705C43.2893 23.7303 43.998 25.4384 44 27.22ZM37.76 32.5C37.76 31.3608 37.4222 30.2471 36.7893 29.2999C36.1563 28.3527 35.2568 27.6144 34.2043 27.1785C33.1518 26.7425 31.9936 26.6284 30.8763 26.8507C29.7589 27.0729 28.7326 27.6215 27.9271 28.4271C27.1215 29.2326 26.5729 30.2589 26.3507 31.3763C26.1284 32.4936 26.2425 33.6518 26.6785 34.7043C27.1144 35.7568 27.8527 36.6563 28.7999 37.2893C29.7471 37.9222 30.8608 38.26 32 38.26C33.5271 38.2583 34.9912 37.6509 36.071 36.571C37.1509 35.4912 37.7583 34.0271 37.76 32.5ZM39.68 26.26C39.68 25.9752 39.5955 25.6968 39.4373 25.46C39.2791 25.2232 39.0542 25.0386 38.7911 24.9296C38.5279 24.8206 38.2384 24.7921 37.9591 24.8477C37.6797 24.9032 37.4232 25.0404 37.2218 25.2418C37.0204 25.4432 36.8832 25.6997 36.8277 25.9791C36.7721 26.2584 36.8006 26.5479 36.9096 26.8111C37.0186 27.0742 37.2032 27.2991 37.44 27.4573C37.6768 27.6155 37.9552 27.7 38.24 27.7C38.6219 27.7 38.9882 27.5483 39.2582 27.2782C39.5283 27.0082 39.68 26.6419 39.68 26.26Z" fill="url(#paint2_linear_59_674)"/>
</g>
<defs>
<linearGradient id="paint0_linear_59_674" x1="32" y1="0" x2="32" y2="64" gradientUnits="userSpaceOnUse">
<stop stop-color="#242424"/>
<stop offset="1" stop-color="#242424" stop-opacity="0"/>
</linearGradient>
<linearGradient id="paint1_linear_59_674" x1="32" y1="0" x2="32" y2="64" gradientUnits="userSpaceOnUse">
<stop stop-color="#2E2E2E"/>
<stop offset="1" stop-color="#2E2E2E" stop-opacity="0"/>
</linearGradient>
<linearGradient id="paint2_linear_59_674" x1="19.4286" y1="24.5" x2="46.6314" y2="38.7491" gradientUnits="userSpaceOnUse">
<stop stop-color="white"/>
<stop offset="1" stop-color="#00C0C8"/>
</linearGradient>
<clipPath id="clip0_59_674">
<rect width="24" height="24" fill="white" transform="translate(20 20)"/>
</clipPath>
</defs>
</svg>
